<svg xmlns="http://www.w3.org/2000/svg" xmlns:xlink="http://www.w3.org/1999/xlink" width="0" height="0" fill="#000">
    <symbol id="photo" viewBox="0 0 24 24">
        <g>
            <path d="M21.75 3.75H2.25C1.83516 3.75 1.5 4.08516 1.5 4.5V19.5C1.5 19.9148 1.83516 20.25 2.25 20.25H21.75C22.1648 20.25 22.5 19.9148 22.5 19.5V4.5C22.5 4.08516 22.1648 3.75 21.75 3.75ZM20.8125 18.5625H3.1875V17.6273L6.43359 13.7766L9.95156 17.9484L15.4242 11.4609L20.8125 17.85V18.5625ZM20.8125 15.5203L15.5672 9.3C15.4922 9.21094 15.3562 9.21094 15.2812 9.3L9.95156 15.6188L6.57656 11.618C6.50156 11.5289 6.36562 11.5289 6.29062 11.618L3.1875 15.2977V5.4375H20.8125V15.5203Z" fill="#1890FF" />
            <path d="M9.95156 17.9484L6.43359 13.7766L3.1875 17.6273V18.5625H20.8125V17.85L15.4242 11.4609L9.95156 17.9484Z" fill="#E6F7FF" />
            <path d="M3.1875 15.2977L6.29062 11.618C6.36562 11.5289 6.50156 11.5289 6.57656 11.618L9.95156 15.6188L15.2812 9.3C15.3562 9.21094 15.4922 9.21094 15.5672 9.3L20.8125 15.5203V5.4375H3.1875V15.2977ZM7.125 6.5625C7.39585 6.5625 7.66405 6.61585 7.91428 6.7195C8.16452 6.82315 8.39189 6.97507 8.58341 7.16659C8.77493 7.35811 8.92685 7.58548 9.0305 7.83572C9.13415 8.08595 9.1875 8.35415 9.1875 8.625C9.1875 8.89585 9.13415 9.16405 9.0305 9.41428C8.92685 9.66452 8.77493 9.89189 8.58341 10.0834C8.39189 10.2749 8.16452 10.4269 7.91428 10.5305C7.66405 10.6342 7.39585 10.6875 7.125 10.6875C6.57799 10.6875 6.05339 10.4702 5.66659 10.0834C5.2798 9.69661 5.0625 9.17201 5.0625 8.625C5.0625 8.07799 5.2798 7.55339 5.66659 7.16659C6.05339 6.7798 6.57799 6.5625 7.125 6.5625Z" fill="#E6F7FF" />
            <path d="M6.46875 8.625C6.46875 8.79905 6.53789 8.96597 6.66096 9.08904C6.78403 9.21211 6.95095 9.28125 7.125 9.28125C7.29905 9.28125 7.46597 9.21211 7.58904 9.08904C7.71211 8.96597 7.78125 8.79905 7.78125 8.625C7.78125 8.45095 7.71211 8.28403 7.58904 8.16096C7.46597 8.03789 7.29905 7.96875 7.125 7.96875C6.95095 7.96875 6.78403 8.03789 6.66096 8.16096C6.53789 8.28403 6.46875 8.45095 6.46875 8.625Z" fill="#E6F7FF" />
            <path d="M7.125 10.6875C7.39585 10.6875 7.66405 10.6342 7.91428 10.5305C8.16452 10.4269 8.39189 10.2749 8.58341 10.0834C8.77493 9.89189 8.92685 9.66452 9.0305 9.41428C9.13415 9.16405 9.1875 8.89585 9.1875 8.625C9.1875 8.35415 9.13415 8.08595 9.0305 7.83572C8.92685 7.58548 8.77493 7.35811 8.58341 7.16659C8.39189 6.97507 8.16452 6.82315 7.91428 6.7195C7.66405 6.61585 7.39585 6.5625 7.125 6.5625C6.57799 6.5625 6.05339 6.7798 5.66659 7.16659C5.2798 7.55339 5.0625 8.07799 5.0625 8.625C5.0625 9.17201 5.2798 9.69661 5.66659 10.0834C6.05339 10.4702 6.57799 10.6875 7.125 10.6875ZM7.125 7.96875C7.48828 7.96875 7.78125 8.26172 7.78125 8.625C7.78125 8.98828 7.48828 9.28125 7.125 9.28125C6.76172 9.28125 6.46875 8.98828 6.46875 8.625C6.46875 8.26172 6.76172 7.96875 7.125 7.96875Z" fill="#1890FF" />
        </g>
    </symbol>
    <symbol id="tagFriends" viewBox="0 0 24 24">
        <g>
            <path d="M15.8976 15.0563C16.4648 14.7516 17.114 14.5781 17.8054 14.5781H17.8077C17.8781 14.5781 17.9109 14.4938 17.8593 14.4469C17.1403 13.8016 16.3189 13.2804 15.4288 12.9047C15.4195 12.9 15.4101 12.8977 15.4007 12.893C16.8562 11.8359 17.8031 10.118 17.8031 8.17969C17.8031 4.96875 15.2062 2.36719 12.0023 2.36719C8.79837 2.36719 6.20384 4.96875 6.20384 8.17969C6.20384 10.118 7.15072 11.8359 8.60853 12.893C8.59915 12.8977 8.58978 12.9 8.58041 12.9047C7.53275 13.3477 6.59291 13.9828 5.78431 14.7938C4.98039 15.5962 4.34036 16.5475 3.89994 17.5945C3.46661 18.6198 3.23274 19.7184 3.21087 20.8312C3.21025 20.8563 3.21464 20.8812 3.22378 20.9044C3.23292 20.9277 3.24663 20.949 3.26411 20.9669C3.28158 20.9848 3.30246 20.999 3.32552 21.0087C3.34858 21.0184 3.37335 21.0234 3.39837 21.0234H4.80228C4.90306 21.0234 4.98744 20.9414 4.98978 20.8406C5.03666 19.0312 5.76087 17.3367 7.04291 16.0523C8.36712 14.7234 10.1296 13.9922 12.0046 13.9922C13.3335 13.9922 14.6085 14.3602 15.7077 15.0492C15.736 15.067 15.7684 15.077 15.8017 15.0782C15.8351 15.0794 15.8681 15.0719 15.8976 15.0563ZM12.0046 12.2109C10.9312 12.2109 9.92103 11.7914 9.15931 11.0297C8.78453 10.6559 8.48742 10.2116 8.28509 9.72248C8.08276 9.23335 7.97921 8.70901 7.98041 8.17969C7.98041 7.10391 8.39994 6.09141 9.15931 5.32969C9.91869 4.56797 10.9288 4.14844 12.0046 4.14844C13.0804 4.14844 14.0882 4.56797 14.8499 5.32969C15.2247 5.70349 15.5218 6.14776 15.7242 6.63689C15.9265 7.12603 16.03 7.65036 16.0288 8.17969C16.0288 9.25547 15.6093 10.268 14.8499 11.0297C14.0882 11.7914 13.0781 12.2109 12.0046 12.2109ZM20.6249 17.7891H18.6562V15.8203C18.6562 15.7172 18.5718 15.6328 18.4687 15.6328H17.1562C17.0531 15.6328 16.9687 15.7172 16.9687 15.8203V17.7891H14.9999C14.8968 17.7891 14.8124 17.8734 14.8124 17.9766V19.2891C14.8124 19.3922 14.8968 19.4766 14.9999 19.4766H16.9687V21.4453C16.9687 21.5484 17.0531 21.6328 17.1562 21.6328H18.4687C18.5718 21.6328 18.6562 21.5484 18.6562 21.4453V19.4766H20.6249C20.7281 19.4766 20.8124 19.3922 20.8124 19.2891V17.9766C20.8124 17.8734 20.7281 17.7891 20.6249 17.7891Z" fill="#1890FF" />
        </g>
    </symbol>
    <symbol id="feeling" viewBox="0 0 24 24">
        <g>
            <path d="M12 1.5C6.20156 1.5 1.5 6.20156 1.5 12C1.5 17.7984 6.20156 22.5 12 22.5C17.7984 22.5 22.5 17.7984 22.5 12C22.5 6.20156 17.7984 1.5 12 1.5ZM12 20.7188C7.18594 20.7188 3.28125 16.8141 3.28125 12C3.28125 7.18594 7.18594 3.28125 12 3.28125C16.8141 3.28125 20.7188 7.18594 20.7188 12C20.7188 16.8141 16.8141 20.7188 12 20.7188Z" fill="#1890FF"/>
            <path d="M12 3.28125C7.18594 3.28125 3.28125 7.18594 3.28125 12C3.28125 16.8141 7.18594 20.7188 12 20.7188C16.8141 20.7188 20.7188 16.8141 20.7188 12C20.7188 7.18594 16.8141 3.28125 12 3.28125ZM6.75 9.86719C6.75601 9.5728 6.87718 9.29249 7.0875 9.08641C7.29782 8.88034 7.58055 8.76492 7.875 8.76492C8.16945 8.76492 8.45218 8.88034 8.6625 9.08641C8.87282 9.29249 8.99399 9.5728 9 9.86719C8.99399 10.1616 8.87282 10.4419 8.6625 10.648C8.45218 10.854 8.16945 10.9695 7.875 10.9695C7.58055 10.9695 7.29782 10.854 7.0875 10.648C6.87718 10.4419 6.75601 10.1616 6.75 9.86719ZM12 16.2422C9.99609 16.2422 8.35313 14.6648 8.25 12.6891C8.24873 12.6637 8.25264 12.6383 8.26149 12.6144C8.27034 12.5906 8.28395 12.5688 8.30149 12.5504C8.31903 12.532 8.34013 12.5173 8.36351 12.5073C8.3869 12.4973 8.41207 12.4922 8.4375 12.4922H9.56484C9.66328 12.4922 9.74766 12.5672 9.75469 12.6656C9.84375 13.8258 10.8164 14.7422 12 14.7422C13.1836 14.7422 14.1586 13.8258 14.2453 12.6656C14.2523 12.5672 14.3367 12.4922 14.4352 12.4922H15.5625C15.5879 12.4922 15.6131 12.4973 15.6365 12.5073C15.6599 12.5173 15.681 12.532 15.6985 12.5504C15.716 12.5688 15.7297 12.5906 15.7385 12.6144C15.7474 12.6383 15.7513 12.6637 15.75 12.6891C15.6469 14.6648 14.0039 16.2422 12 16.2422ZM16.125 10.9922C15.8306 10.9862 15.5503 10.865 15.3442 10.6547C15.1382 10.4444 15.0227 10.1616 15.0227 9.86719C15.0227 9.57273 15.1382 9.29001 15.3442 9.07969C15.5503 8.86936 15.8306 8.7482 16.125 8.74219C16.4194 8.7482 16.6997 8.86936 16.9058 9.07969C17.1118 9.29001 17.2273 9.57273 17.2273 9.86719C17.2273 10.1616 17.1118 10.4444 16.9058 10.6547C16.6997 10.865 16.4194 10.9862 16.125 10.9922Z" fill="#E6F7FF"/>
            <path d="M6.75 9.86719C6.75 10.1656 6.86853 10.4517 7.0795 10.6627C7.29048 10.8737 7.57663 10.9922 7.875 10.9922C8.17337 10.9922 8.45952 10.8737 8.6705 10.6627C8.88147 10.4517 9 10.1656 9 9.86719C9 9.56882 8.88147 9.28267 8.6705 9.07169C8.45952 8.86071 8.17337 8.74219 7.875 8.74219C7.57663 8.74219 7.29048 8.86071 7.0795 9.07169C6.86853 9.28267 6.75 9.56882 6.75 9.86719ZM15.5625 12.4922H14.4352C14.3367 12.4922 14.2523 12.5672 14.2453 12.6656C14.1586 13.8258 13.1836 14.7422 12 14.7422C10.8164 14.7422 9.84375 13.8258 9.75469 12.6656C9.74766 12.5672 9.66328 12.4922 9.56484 12.4922H8.4375C8.41207 12.4922 8.3869 12.4973 8.36351 12.5073C8.34013 12.5173 8.31903 12.532 8.30149 12.5504C8.28395 12.5688 8.27034 12.5906 8.26149 12.6144C8.25264 12.6383 8.24873 12.6637 8.25 12.6891C8.35312 14.6648 9.99609 16.2422 12 16.2422C14.0039 16.2422 15.6469 14.6648 15.75 12.6891C15.7513 12.6637 15.7474 12.6383 15.7385 12.6144C15.7297 12.5906 15.716 12.5688 15.6985 12.5504C15.681 12.532 15.6599 12.5173 15.6365 12.5073C15.6131 12.4973 15.5879 12.4922 15.5625 12.4922ZM15 9.86719C15 10.1656 15.1185 10.4517 15.3295 10.6627C15.5405 10.8737 15.8266 10.9922 16.125 10.9922C16.4234 10.9922 16.7095 10.8737 16.9205 10.6627C17.1315 10.4517 17.25 10.1656 17.25 9.86719C17.25 9.56882 17.1315 9.28267 16.9205 9.07169C16.7095 8.86071 16.4234 8.74219 16.125 8.74219C15.8266 8.74219 15.5405 8.86071 15.3295 9.07169C15.1185 9.28267 15 9.56882 15 9.86719Z" fill="#1890FF"/>
        </g>
    </symbol>
    <symbol id="setting" viewBox="0 0 14 14">
        <g>
            <path d="M12.6438 8.55473L11.7483 7.7891C11.7907 7.52934 11.8126 7.2641 11.8126 6.99887C11.8126 6.73363 11.7907 6.4684 11.7483 6.20863L12.6438 5.44301C12.7114 5.38519 12.7597 5.30817 12.7824 5.22221C12.8051 5.13624 12.8011 5.0454 12.771 4.96176L12.7587 4.92621C12.5121 4.23719 12.143 3.59845 11.669 3.04086L11.6444 3.01215C11.5869 2.94454 11.5103 2.89595 11.4246 2.87276C11.339 2.84958 11.2483 2.85289 11.1645 2.88227L10.053 3.27738C9.64285 2.94106 9.18485 2.67582 8.68992 2.48988L8.47528 1.32777C8.45908 1.24033 8.41667 1.15989 8.35366 1.09713C8.29066 1.03437 8.21005 0.992262 8.12254 0.976407L8.08563 0.969571C7.37332 0.841055 6.6241 0.841055 5.9118 0.969571L5.87489 0.976407C5.78738 0.992262 5.70677 1.03437 5.64377 1.09713C5.58076 1.15989 5.53835 1.24033 5.52215 1.32777L5.30614 2.49535C4.81516 2.68133 4.35795 2.94642 3.95262 3.28012L2.83289 2.88227C2.74918 2.85266 2.65843 2.84922 2.57271 2.87242C2.487 2.89562 2.41037 2.94436 2.35301 3.01215L2.3284 3.04086C1.85501 3.59884 1.48591 4.23747 1.23875 4.92621L1.22645 4.96176C1.16493 5.13266 1.21551 5.32406 1.3536 5.44301L2.26004 6.21684C2.21766 6.47387 2.19715 6.73637 2.19715 6.9975C2.19715 7.26 2.21766 7.5225 2.26004 7.77817L1.3536 8.55199C1.28605 8.60982 1.23771 8.68683 1.215 8.7728C1.19229 8.85876 1.19628 8.9496 1.22645 9.03324L1.23875 9.06879C1.48621 9.75785 1.85262 10.3936 2.3284 10.9541L2.35301 10.9829C2.41051 11.0505 2.48714 11.0991 2.5728 11.1222C2.65847 11.1454 2.74915 11.1421 2.83289 11.1127L3.95262 10.7149C4.36004 11.0498 4.81532 11.3151 5.30614 11.4997L5.52215 12.6672C5.53835 12.7547 5.58076 12.8351 5.64377 12.8979C5.70677 12.9606 5.78738 13.0027 5.87489 13.0186L5.9118 13.0254C6.63065 13.1546 7.36678 13.1546 8.08563 13.0254L8.12254 13.0186C8.21005 13.0027 8.29066 12.9606 8.35366 12.8979C8.41667 12.8351 8.45908 12.7547 8.47528 12.6672L8.68992 11.5051C9.18465 11.3197 9.64524 11.0536 10.053 10.7176L11.1645 11.1127C11.2483 11.1423 11.339 11.1458 11.4247 11.1226C11.5104 11.0994 11.5871 11.0506 11.6444 10.9829L11.669 10.9541C12.1448 10.3922 12.5112 9.75785 12.7587 9.06879L12.771 9.03324C12.8325 8.86508 12.7819 8.67367 12.6438 8.55473ZM10.7776 6.36996C10.8118 6.57641 10.8296 6.78832 10.8296 7.00024C10.8296 7.21215 10.8118 7.42406 10.7776 7.63051L10.6874 8.17875L11.7087 9.05238C11.5539 9.40907 11.3584 9.74672 11.1263 10.0586L9.8575 9.60883L9.42821 9.96156C9.10145 10.2295 8.73778 10.4401 8.34403 10.5877L7.82313 10.7832L7.5784 12.1094C7.19227 12.1532 6.80243 12.1532 6.41629 12.1094L6.17157 10.7805L5.65477 10.5823C5.26512 10.4346 4.90282 10.2241 4.57879 9.95746L4.1495 9.60336L2.87254 10.0573C2.64012 9.74418 2.44598 9.40649 2.29012 9.05102L3.32235 8.16918L3.23348 7.62231C3.20067 7.41859 3.18289 7.20805 3.18289 7.00024C3.18289 6.79106 3.1993 6.58188 3.23348 6.37816L3.32235 5.83129L2.29012 4.94945C2.44461 4.59262 2.64012 4.25629 2.87254 3.9432L4.1495 4.39711L4.57879 4.04301C4.90282 3.77641 5.26512 3.56586 5.65477 3.4182L6.17293 3.2227L6.41766 1.89379C6.80184 1.85004 7.19422 1.85004 7.57977 1.89379L7.8245 3.21996L8.34539 3.41547C8.73778 3.56313 9.10282 3.77367 9.42957 4.04164L9.85887 4.39438L11.1276 3.94457C11.36 4.25766 11.5542 4.59535 11.71 4.95082L10.6888 5.82445L10.7776 6.36996ZM7.00008 4.45727C5.67118 4.45727 4.59383 5.53461 4.59383 6.86352C4.59383 8.19242 5.67118 9.26977 7.00008 9.26977C8.32899 9.26977 9.40633 8.19242 9.40633 6.86352C9.40633 5.53461 8.32899 4.45727 7.00008 4.45727ZM8.08289 7.94633C7.94087 8.08876 7.77209 8.2017 7.58626 8.27866C7.40043 8.35562 7.20122 8.39508 7.00008 8.39477C6.59129 8.39477 6.20711 8.23481 5.91727 7.94633C5.77484 7.80431 5.6619 7.63553 5.58494 7.4497C5.50798 7.26387 5.46852 7.06465 5.46883 6.86352C5.46883 6.45473 5.62879 6.07055 5.91727 5.7807C6.20711 5.49086 6.59129 5.33227 7.00008 5.33227C7.40887 5.33227 7.79305 5.49086 8.08289 5.7807C8.22532 5.92272 8.33827 6.09151 8.41523 6.27734C8.49219 6.46317 8.53164 6.66238 8.53133 6.86352C8.53133 7.27231 8.37137 7.65649 8.08289 7.94633Z" fill="#8C8C8C"/>
        </g>
    </symbol>
    <symbol id="like" viewBox="0 0 16 16">
        <g>
            <path d="M4.26562 7.74846V14.436L4.27031 7.74846H4.26562ZM12.675 6.36877H7.7625L7.9125 3.26877C7.92188 3.08283 7.83906 2.90783 7.68437 2.79221C7.58906 2.72189 7.47188 2.68596 7.35469 2.68752C7.04844 2.68908 6.77813 2.89689 6.69531 3.19221C6.11563 5.29221 5.68125 6.86721 5.39062 7.91877V13.3125H11.6313C11.7874 13.2425 11.9201 13.1289 12.0132 12.9853C12.1063 12.8417 12.156 12.6743 12.1562 12.5031C12.1562 12.3516 12.1203 12.2078 12.0484 12.0766L11.8313 11.6797L12.1734 11.3828C12.2698 11.2994 12.347 11.1962 12.3998 11.0803C12.4527 10.9643 12.4799 10.8384 12.4797 10.711C12.4797 10.5594 12.4437 10.4156 12.3719 10.2844L12.1547 9.88752L12.4969 9.59064C12.5932 9.50723 12.6704 9.40403 12.7232 9.28809C12.7761 9.17215 12.8033 9.04618 12.8031 8.91877C12.8031 8.76721 12.7672 8.62346 12.6953 8.49221L12.4766 8.09377L12.8188 7.79689C12.9151 7.71348 12.9923 7.61028 13.0451 7.49434C13.098 7.3784 13.1252 7.25243 13.125 7.12502C13.125 6.82658 12.9531 6.53908 12.675 6.36877Z" fill="#E6F7FF"/>
            <path d="M1.75 8.25005V13.9375C1.75 14.2141 1.97344 14.4375 2.25 14.4375H3.26562V7.75005H2.25C1.97344 7.75005 1.75 7.97349 1.75 8.25005ZM13.8422 8.33911C14.1047 7.99224 14.25 7.56724 14.25 7.12505C14.25 6.42349 13.8578 5.75786 13.2266 5.39067C13.0641 5.29535 12.879 5.24519 12.6906 5.24536H8.94219L9.03594 3.32505C9.05937 2.86099 8.89531 2.42036 8.575 2.08442C8.4187 1.91868 8.23 1.78683 8.02061 1.69705C7.81123 1.60728 7.58563 1.5615 7.35781 1.56255C6.54531 1.56255 5.82656 2.10942 5.61094 2.89224L4.27031 7.74849L4.26562 14.436H11.6422C11.7875 14.436 11.9266 14.4079 12.0562 14.3516C12.8 14.0344 13.2797 13.3079 13.2797 12.5016C13.2797 12.3047 13.2516 12.111 13.1953 11.9235C13.4578 11.5766 13.6031 11.1516 13.6031 10.7094C13.6031 10.5125 13.575 10.3188 13.5188 10.1313C13.7812 9.78442 13.9266 9.35942 13.9266 8.91724C13.9266 8.72036 13.8984 8.52661 13.8422 8.33911ZM12.8188 7.79692L12.4766 8.0938L12.6953 8.49224C12.7669 8.62297 12.804 8.76976 12.8031 8.9188C12.8031 9.17661 12.6922 9.42192 12.4969 9.59067L12.1547 9.88755L12.3719 10.2844C12.4434 10.4152 12.4805 10.562 12.4797 10.711C12.4797 10.9688 12.3687 11.2141 12.1734 11.3829L11.8313 11.6797L12.0484 12.0766C12.12 12.2073 12.1571 12.3541 12.1562 12.5032C12.1562 12.8532 11.95 13.1688 11.6313 13.3125H5.39062V7.9188C5.68125 6.8688 6.11562 5.2938 6.69531 3.19224C6.73581 3.04809 6.82198 2.92098 6.94087 2.82998C7.05977 2.73898 7.20497 2.689 7.35469 2.68755C7.47188 2.68599 7.58906 2.72192 7.68437 2.79224C7.83906 2.90786 7.92188 3.08286 7.9125 3.2688L7.7625 6.3688H12.675C12.9531 6.53911 13.125 6.82661 13.125 7.12505C13.125 7.38286 13.0141 7.62817 12.8188 7.79692Z" fill="#1890FF"/>
        </g>
    </symbol>
    <symbol id="likePost" viewBox="0 0 20 20">
        <g>
            <path d="M18.7633 10.5094C19.157 9.98909 19.375 9.35159 19.375 8.6883C19.375 7.63596 18.7867 6.63987 17.8398 6.0844C17.5961 5.94142 17.3185 5.86617 17.0359 5.86643H11.4156L11.5563 2.98596C11.5891 2.28987 11.343 1.62893 10.8648 1.12502C10.6302 0.876652 10.3471 0.679038 10.0331 0.544395C9.71905 0.409752 9.38074 0.34094 9.03906 0.342211C7.82031 0.342211 6.74219 1.16252 6.41875 2.33674L4.40547 9.62581H1.375C0.960156 9.62581 0.625 9.96096 0.625 10.3758V18.9071C0.625 19.3219 0.960156 19.6571 1.375 19.6571H15.468C15.6836 19.6571 15.8945 19.6149 16.0891 19.5305C17.2047 19.0547 17.9242 17.9649 17.9242 16.7555C17.9242 16.4602 17.882 16.1696 17.7977 15.8883C18.1914 15.368 18.4094 14.7305 18.4094 14.0672C18.4094 13.7719 18.3672 13.4813 18.2828 13.2C18.6766 12.6797 18.8945 12.0422 18.8945 11.3789C18.8898 11.0836 18.8477 10.7906 18.7633 10.5094ZM2.3125 17.9696V11.3133H4.21094V17.9696H2.3125ZM17.2281 9.69612L16.7148 10.1414L17.0406 10.7367C17.148 10.9328 17.2036 11.153 17.2023 11.3766C17.2023 11.7633 17.0336 12.1313 16.743 12.3844L16.2297 12.8297L16.5555 13.425C16.6628 13.6211 16.7185 13.8413 16.7172 14.0649C16.7172 14.4516 16.5484 14.8196 16.2578 15.0727L15.7445 15.518L16.0703 16.1133C16.1776 16.3094 16.2333 16.5296 16.232 16.7531C16.232 17.2781 15.9227 17.7516 15.4445 17.9672H5.71094V11.2383L8.04297 2.78909C8.1031 2.57252 8.23219 2.38147 8.41066 2.24486C8.58914 2.10825 8.80728 2.03354 9.03203 2.03205C9.21016 2.03205 9.38594 2.08362 9.52656 2.18909C9.75859 2.36252 9.88281 2.62502 9.86875 2.90393L9.64375 7.55393H17.0125C17.4297 7.8094 17.6875 8.24065 17.6875 8.6883C17.6875 9.07502 17.5188 9.44065 17.2281 9.69612Z" fill="#595959"/>
        </g>
    </symbol>
    <symbol id="comment" viewBox="0 0 24 24">
        <g>
            <path d="M10.8752 12C10.8752 12.2984 10.9937 12.5845 11.2047 12.7955C11.4157 13.0065 11.7018 13.125 12.0002 13.125C12.2985 13.125 12.5847 13.0065 12.7957 12.7955C13.0067 12.5845 13.1252 12.2984 13.1252 12C13.1252 11.7016 13.0067 11.4155 12.7957 11.2045C12.5847 10.9935 12.2985 10.875 12.0002 10.875C11.7018 10.875 11.4157 10.9935 11.2047 11.2045C10.9937 11.4155 10.8752 11.7016 10.8752 12ZM15.5627 12C15.5627 12.2984 15.6812 12.5845 15.8922 12.7955C16.1032 13.0065 16.3893 13.125 16.6877 13.125C16.986 13.125 17.2722 13.0065 17.4832 12.7955C17.6942 12.5845 17.8127 12.2984 17.8127 12C17.8127 11.7016 17.6942 11.4155 17.4832 11.2045C17.2722 10.9935 16.986 10.875 16.6877 10.875C16.3893 10.875 16.1032 10.9935 15.8922 11.2045C15.6812 11.4155 15.5627 11.7016 15.5627 12ZM6.18768 12C6.18768 12.2984 6.30621 12.5845 6.51718 12.7955C6.72816 13.0065 7.01431 13.125 7.31268 13.125C7.61105 13.125 7.8972 13.0065 8.10817 12.7955C8.31915 12.5845 8.43768 12.2984 8.43768 12C8.43768 11.7016 8.31915 11.4155 8.10817 11.2045C7.8972 10.9935 7.61105 10.875 7.31268 10.875C7.01431 10.875 6.72816 10.9935 6.51718 11.2045C6.30621 11.4155 6.18768 11.7016 6.18768 12ZM21.6846 7.93125C21.1549 6.67266 20.3955 5.54297 19.4275 4.57266C18.4663 3.60796 17.3253 2.84114 16.0689 2.31563C14.7799 1.77422 13.4111 1.5 12.0002 1.5H11.9533C10.533 1.50703 9.15721 1.78828 7.86346 2.34141C6.61789 2.87232 5.48752 3.64049 4.53534 4.60312C3.57674 5.57109 2.8244 6.69609 2.30409 7.95C1.76502 9.24844 1.49315 10.6289 1.50018 12.0492C1.50813 13.6769 1.89321 15.2806 2.62518 16.7344V20.2969C2.62518 20.5828 2.73877 20.857 2.94095 21.0592C3.14314 21.2614 3.41737 21.375 3.7033 21.375H7.26815C8.72196 22.107 10.3256 22.492 11.9533 22.5H12.0025C13.4064 22.5 14.7681 22.2281 16.0502 21.6961C17.3002 21.1768 18.437 20.419 19.3971 19.4648C20.365 18.5063 21.1267 17.3859 21.6588 16.1367C22.2119 14.843 22.4931 13.4672 22.5002 12.0469C22.5072 10.6195 22.2306 9.23438 21.6846 7.93125ZM18.1431 18.1969C16.5002 19.8234 14.3205 20.7188 12.0002 20.7188H11.9603C10.5471 20.7117 9.14315 20.3602 7.9033 19.6992L7.70643 19.5938H4.40643V16.2938L4.30096 16.0969C3.64002 14.857 3.28846 13.4531 3.28143 12.0398C3.27205 9.70312 4.16502 7.50937 5.8033 5.85703C7.43924 4.20469 9.62596 3.29062 11.9627 3.28125H12.0025C13.1744 3.28125 14.3111 3.50859 15.3822 3.95859C16.4275 4.39687 17.365 5.02734 18.1713 5.83359C18.9752 6.6375 19.608 7.57734 20.0463 8.62266C20.501 9.70547 20.7283 10.8539 20.7236 12.0398C20.7096 14.3742 19.7931 16.5609 18.1431 18.1969Z" fill="#595959"/>
        </g>
    </symbol>
    <symbol id="share" viewBox="0 0 24 24">
        <g>
            <path d="M17.625 15.5625C16.957 15.5625 16.3406 15.7969 15.8578 16.1883L11.0016 12.675C11.0829 12.2287 11.0829 11.7713 11.0016 11.325L15.8578 7.81172C16.3406 8.20312 16.957 8.4375 17.625 8.4375C19.1766 8.4375 20.4375 7.17656 20.4375 5.625C20.4375 4.07344 19.1766 2.8125 17.625 2.8125C16.0734 2.8125 14.8125 4.07344 14.8125 5.625C14.8125 5.89687 14.85 6.15703 14.9227 6.40547L10.3102 9.74531C9.62578 8.83828 8.53828 8.25 7.3125 8.25C5.24062 8.25 3.5625 9.92812 3.5625 12C3.5625 14.0719 5.24062 15.75 7.3125 15.75C8.53828 15.75 9.62578 15.1617 10.3102 14.2547L14.9227 17.5945C14.85 17.843 14.8125 18.1055 14.8125 18.375C14.8125 19.9266 16.0734 21.1875 17.625 21.1875C19.1766 21.1875 20.4375 19.9266 20.4375 18.375C20.4375 16.8234 19.1766 15.5625 17.625 15.5625ZM17.625 4.40625C18.2977 4.40625 18.8438 4.95234 18.8438 5.625C18.8438 6.29766 18.2977 6.84375 17.625 6.84375C16.9523 6.84375 16.4062 6.29766 16.4062 5.625C16.4062 4.95234 16.9523 4.40625 17.625 4.40625ZM7.3125 14.0625C6.17578 14.0625 5.25 13.1367 5.25 12C5.25 10.8633 6.17578 9.9375 7.3125 9.9375C8.44922 9.9375 9.375 10.8633 9.375 12C9.375 13.1367 8.44922 14.0625 7.3125 14.0625ZM17.625 19.5938C16.9523 19.5938 16.4062 19.0477 16.4062 18.375C16.4062 17.7023 16.9523 17.1562 17.625 17.1562C18.2977 17.1562 18.8438 17.7023 18.8438 18.375C18.8438 19.0477 18.2977 19.5938 17.625 19.5938Z" fill="#595959"/>
        </g>
    </symbol>
    <symbol id="clockCircle" viewBox = "0 0 16 16">
        <g>
            <path d="M8 1C4.13438 1 1 4.13438 1 8C1 11.8656 4.13438 15 8 15C11.8656 15 15 11.8656 15 8C15 4.13438 11.8656 1 8 1ZM8 13.8125C4.79063 13.8125 2.1875 11.2094 2.1875 8C2.1875 4.79063 4.79063 2.1875 8 2.1875C11.2094 2.1875 13.8125 4.79063 13.8125 8C13.8125 11.2094 11.2094 13.8125 8 13.8125Z" fill="#0050B3"/>
            <path d="M10.7297 9.97811L8.50156 8.36718V4.5C8.50156 4.43125 8.44531 4.375 8.37656 4.375H7.625C7.55625 4.375 7.5 4.43125 7.5 4.5V8.80311C7.5 8.84374 7.51875 8.88124 7.55156 8.90467L10.1359 10.789C10.1922 10.8297 10.2703 10.8172 10.3109 10.7625L10.7578 10.1531C10.7984 10.0953 10.7859 10.0172 10.7297 9.97811Z" fill="#0050B3"/>
        </g>
    </symbol>
</svg>


